<?xml version="1.0" encoding="utf-8"?>
<!-- Generator: Adobe Illustrator 18.0.0, SVG Export Plug-In . SVG Version: 6.00 Build 0)  -->
<!DOCTYPE svg PUBLIC "-//W3C//DTD SVG 1.1//EN" "http://www.w3.org/Graphics/SVG/1.1/DTD/svg11.dtd">
<svg version="1.1" id="Layer_1" xmlns="http://www.w3.org/2000/svg" xmlns:xlink="http://www.w3.org/1999/xlink" x="0px" y="0px"
	 viewBox="0 0 89.6 35.8" enable-background="new 0 0 89.6 35.8" xml:space="preserve">
<g>
	<defs>
		<rect id="SVGID_1_" y="15.4" width="42" height="20.4"/>
	</defs>
	<clipPath id="SVGID_2_">
		<use xlink:href="#SVGID_1_"  overflow="visible"/>
	</clipPath>
	<g clip-path="url(#SVGID_2_)">
		<defs>
			<rect id="SVGID_3_" x="-1499" y="-588.5" width="1687" height="851"/>
		</defs>
		<clipPath id="SVGID_4_">
			<use xlink:href="#SVGID_3_"  overflow="visible"/>
		</clipPath>
		<g clip-path="url(#SVGID_4_)" enable-background="new    ">
			<g>
				<defs>
					<rect id="SVGID_5_" y="14.5" width="43" height="22"/>
				</defs>
				<clipPath id="SVGID_6_">
					<use xlink:href="#SVGID_5_"  overflow="visible"/>
				</clipPath>
				<g clip-path="url(#SVGID_6_)">
					<defs>
						<path id="SVGID_7_" d="M2.2,23.4c-0.1,0.6,0,1.9,0.3,2.6c0.5,1.2,1.5,1.8,2.8,1.8c1.5,0,2.6-0.5,3.3-1l0.3,1.8
							c-0.9,0.6-2.4,1.1-4.1,1.1c-3.3,0-4.7-2.5-4.7-5.5c0-4.2,2.8-8.8,6.8-8.8c2.4,0,3.7,1.6,3.7,3.5C10.4,22.5,6.8,23.5,2.2,23.4z
							 M6.5,17.2c-2,0-3.5,2.2-4.1,4.4c3.3,0,6-0.5,6-2.6C8.4,17.8,7.6,17.2,6.5,17.2z M21,23.1c-0.4,2.4-0.6,4.8-0.5,6.4h-2
							c0-0.8,0.1-2.1,0.3-3.6h-0.1c-1.4,2.8-3.1,3.9-4.8,3.9c-2.2,0-3.6-1.9-3.6-4.6c0-4.8,3.2-9.8,8.6-9.8c1.2,0,2.5,0.2,3.3,0.5
							L21,23.1z M18.4,17.2c-3.2,0-5.8,3.7-5.9,7.5c0,1.5,0.5,3,2.1,3c1.8,0,3.9-2.6,4.5-6.2l0.7-4.2C19.6,17.3,19.1,17.2,18.4,17.2
							z M30.1,17.8c-0.4-0.3-1.2-0.6-2.2-0.6c-1.3,0-2.2,0.9-2.2,2.1c0,1,0.6,1.6,1.7,2.3c1.4,0.9,2.3,2.1,2.3,3.6
							c0,2.9-2.1,4.5-4.8,4.5c-1.3,0-2.5-0.5-3.1-0.9l0.6-1.7c0.6,0.4,1.7,0.9,2.7,0.9c1.4,0,2.4-1,2.4-2.2c0-1.1-0.4-1.7-1.7-2.5
							c-1.4-0.9-2.2-2.1-2.2-3.5c0-2.4,1.9-4.3,4.5-4.3c1.1,0,2.1,0.3,2.6,0.7L30.1,17.8z M37.4,26.1c-1.3,3-2.6,5.4-4.3,7.2
							c-1.4,1.6-2.9,2.2-3.6,2.4l-0.5-2c0.5-0.2,1.4-0.6,2.3-1.3c0.8-0.7,1.7-1.8,2.4-3.2c0.1-0.2,0.1-0.4,0.1-0.6l-2.5-12.9h2.2
							l1.2,7.4c0.3,1.6,0.4,2.6,0.6,3.6h0.1c0.3-0.9,0.7-1.8,1.3-3.4l3.2-7.7H42L37.4,26.1z"/>
					</defs>
					<clipPath id="SVGID_8_">
						<use xlink:href="#SVGID_7_"  overflow="visible"/>
					</clipPath>
					<g clip-path="url(#SVGID_8_)">
						<defs>
							<rect id="SVGID_9_" y="14.5" width="43" height="22"/>
						</defs>
						<clipPath id="SVGID_10_">
							<use xlink:href="#SVGID_9_"  overflow="visible"/>
						</clipPath>
						<rect x="-5" y="10.4" clip-path="url(#SVGID_10_)" fill="#252525" width="52" height="30.4"/>
					</g>
				</g>
			</g>
		</g>
	</g>
</g>
<g>
	<defs>
		<path id="SVGID_11_" d="M37.1,32.4c0,0,5.6-9.2,6.6-13.5c1-4.3,1.1-6.6-2.8-7c-4-0.4-8.5,0-8.5,0s6.3-4,14.6-3.7
			c8.4,0.2,13.2,3.7,13.2,3.7s-1.8,0.7-4.7,0.9c-2.9,0.3-4,0.9-3.8,4.2c0.2,3.3,1.4,5.6,1.4,5.6s-4.7-3.1-7.6,0
			c-2.9,3.1-3.5,4.5-5.2,6.5C38.7,31.1,37.1,32.4,37.1,32.4"/>
	</defs>
	<clipPath id="SVGID_12_">
		<use xlink:href="#SVGID_11_"  overflow="visible"/>
	</clipPath>
	<g clip-path="url(#SVGID_12_)">
		<defs>
			<rect id="SVGID_13_" x="-1499" y="-588.5" width="1687" height="851"/>
		</defs>
		<clipPath id="SVGID_14_">
			<use xlink:href="#SVGID_13_"  overflow="visible"/>
		</clipPath>
		<rect x="27.4" y="3.1" clip-path="url(#SVGID_14_)" fill="#136BB5" width="37.9" height="34.3"/>
	</g>
</g>
<g>
	<defs>
		<path id="SVGID_15_" d="M46.7,0c2,0,3.6,1.6,3.6,3.6c0,2-1.6,3.6-3.6,3.6c-2,0-3.6-1.6-3.6-3.6C43.1,1.6,44.8,0,46.7,0"/>
	</defs>
	<clipPath id="SVGID_16_">
		<use xlink:href="#SVGID_15_"  overflow="visible"/>
	</clipPath>
	<g clip-path="url(#SVGID_16_)">
		<defs>
			<rect id="SVGID_17_" x="-1499" y="-588.5" width="1687" height="851"/>
		</defs>
		<clipPath id="SVGID_18_">
			<use xlink:href="#SVGID_17_"  overflow="visible"/>
		</clipPath>
		<rect x="38.1" y="-5" clip-path="url(#SVGID_18_)" fill="#F8A81B" width="17.2" height="17.2"/>
	</g>
</g>
<g>
	<defs>
		<rect id="SVGID_19_" x="53" y="15.4" width="36.6" height="20.4"/>
	</defs>
	<clipPath id="SVGID_20_">
		<use xlink:href="#SVGID_19_"  overflow="visible"/>
	</clipPath>
	<g clip-path="url(#SVGID_20_)">
		<defs>
			<rect id="SVGID_21_" x="-1499" y="-588.5" width="1687" height="851"/>
		</defs>
		<clipPath id="SVGID_22_">
			<use xlink:href="#SVGID_21_"  overflow="visible"/>
		</clipPath>
		<g clip-path="url(#SVGID_22_)" enable-background="new    ">
			<g>
				<defs>
					<rect id="SVGID_23_" x="53" y="14.5" width="37" height="22"/>
				</defs>
				<clipPath id="SVGID_24_">
					<use xlink:href="#SVGID_23_"  overflow="visible"/>
				</clipPath>
				<g clip-path="url(#SVGID_24_)">
					<defs>
						<path id="SVGID_25_" d="M58.9,29.7c-1.3,0-2.2-0.3-2.7-0.6h-0.1l-1,5.9H53l2.5-14.5c0.3-1.7,0.5-3.5,0.7-4.9h1.9l-0.4,2.6h0.1
							c1.1-1.8,2.8-2.9,4.4-2.9c2.7,0,3.8,2.4,3.8,5C66.1,25.2,63,29.7,58.9,29.7z M61.5,17.3c-1.7,0-3.8,2.1-4.4,6l-0.6,3.8
							c0.5,0.5,1.4,0.8,2.4,0.8c2.7,0,5-3.8,5-7.4C63.9,19,63.3,17.3,61.5,17.3z M77,23.1c-0.4,2.4-0.6,4.8-0.5,6.4h-2
							c0-0.8,0.1-2.1,0.3-3.6h-0.1c-1.4,2.8-3,3.9-4.8,3.9c-2.2,0-3.6-1.9-3.6-4.6c0-4.8,3.2-9.8,8.6-9.8c1.2,0,2.5,0.2,3.3,0.5
							L77,23.1z M74.4,17.2c-3.2,0-5.8,3.7-5.8,7.5c0,1.5,0.5,3,2.1,3c1.8,0,3.9-2.6,4.5-6.2l0.7-4.2C75.6,17.3,75.1,17.2,74.4,17.2
							z M85,26.1c-1.3,3-2.6,5.4-4.3,7.2c-1.4,1.6-2.9,2.2-3.6,2.4l-0.5-2c0.5-0.2,1.4-0.6,2.3-1.3c0.8-0.7,1.7-1.8,2.4-3.2
							c0.1-0.2,0.1-0.4,0.1-0.6l-2.5-12.9h2.2l1.2,7.4c0.3,1.6,0.4,2.6,0.6,3.6h0.1c0.3-0.9,0.7-1.8,1.3-3.4l3.1-7.7h2.2L85,26.1z"
							/>
					</defs>
					<clipPath id="SVGID_26_">
						<use xlink:href="#SVGID_25_"  overflow="visible"/>
					</clipPath>
					<g clip-path="url(#SVGID_26_)">
						<defs>
							<rect id="SVGID_27_" x="53" y="14.5" width="37" height="22"/>
						</defs>
						<clipPath id="SVGID_28_">
							<use xlink:href="#SVGID_27_"  overflow="visible"/>
						</clipPath>
						<rect x="48" y="10.4" clip-path="url(#SVGID_28_)" fill="#252525" width="46.6" height="30.4"/>
					</g>
				</g>
			</g>
		</g>
	</g>
</g>
</svg>
